<svg xmlns="http://www.w3.org/2000/svg" width="1000" height="680" viewBox="0 0 1000 680" font-family="Arial, Helvetica, sans-serif">
<rect x="1" y="1" width="998" height="678" fill="white" stroke="black" stroke-width="2"/>
  <rect x="0" y="0" width="210" height="680" fill="#e9e9e9" stroke="black" stroke-width="2"/>
  <text x="105" y="38" font-size="20" font-weight="bold" text-anchor="middle">Logo</text>
  <text x="105" y="60" font-size="12" text-anchor="middle" fill="#555">Role</text>
  <rect x="18" y="100" width="174" height="34" rx="6" fill="#bdbdbd" stroke="black"/>
  <text x="105" y="121" font-size="12" text-anchor="middle">Nav Item (active)</text>
  <rect x="18" y="142" width="174" height="34" rx="6" fill="none" stroke="black"/>
  <text x="105" y="163" font-size="12" text-anchor="middle">Nav Item</text>
  <rect x="18" y="184" width="174" height="34" rx="6" fill="none" stroke="black"/>
  <text x="105" y="205" font-size="12" text-anchor="middle">Nav Item</text>
  <rect x="18" y="226" width="174" height="34" rx="6" fill="none" stroke="black"/>
  <text x="105" y="247" font-size="12" text-anchor="middle">Nav Item</text>
  <rect x="18" y="268" width="174" height="34" rx="6" fill="none" stroke="black"/>
  <text x="105" y="289" font-size="12" text-anchor="middle">Nav Item</text>
  <rect x="18" y="310" width="174" height="34" rx="6" fill="none" stroke="black"/>
  <text x="105" y="331" font-size="12" text-anchor="middle">Nav Item</text>
  <rect x="18" y="352" width="174" height="34" rx="6" fill="none" stroke="black"/>
  <text x="105" y="373" font-size="12" text-anchor="middle">Nav Item</text>
  <rect x="210" y="0" width="790" height="54" fill="#f3f3f3" stroke="black" stroke-width="2"/>
  <line x1="232" y1="20" x2="254" y2="20" stroke="black" stroke-width="2.5"/>
  <line x1="232" y1="27" x2="254" y2="27" stroke="black" stroke-width="2.5"/>
  <line x1="232" y1="34" x2="254" y2="34" stroke="black" stroke-width="2.5"/>
  <circle cx="872" cy="27" r="13" fill="none" stroke="black" stroke-width="2"/>
  <circle cx="881" cy="18" r="5" fill="black"/>
  <circle cx="915" cy="27" r="13" fill="#bdbdbd" stroke="black" stroke-width="2"/>
  <text x="935" y="31" font-size="12">User Menu</text>
  <text x="235" y="80" font-size="11" fill="#777">Breadcrumb</text>
  <text x="235" y="108" font-size="22" font-weight="bold">Title</text>
  <text x="235" y="130" font-size="12" fill="#555">Subtitle</text>
  <!-- award type tabs -->
  <text x="320" y="172" font-size="12" font-weight="bold" text-anchor="middle">Tab 1</text>
  <line x1="270" y1="184" x2="370" y2="184" stroke="black" stroke-width="2.5"/>
  <text x="470" y="172" font-size="12" text-anchor="middle" fill="#555">Tab 2</text>
  <text x="620" y="172" font-size="12" text-anchor="middle" fill="#555">Tab 3</text>
  <text x="770" y="172" font-size="12" text-anchor="middle" fill="#555">Tab 4</text>
  <text x="900" y="172" font-size="12" text-anchor="middle" fill="#555">...</text>
  <line x1="235" y1="196" x2="980" y2="196" stroke="#bbb" stroke-width="1.5"/>
  <text x="607" y="150" font-size="11" text-anchor="middle" fill="#777">Award Type Tabs</text>
  <!-- filter bar -->
  <rect x="235" y="212" width="745" height="76" rx="8" fill="#f5f5f5" stroke="black" stroke-width="2"/>
  <text x="252" y="234" font-size="11" font-weight="bold">Filter Bar</text>
  <rect x="252" y="244" width="170" height="32" rx="6" fill="white" stroke="black" stroke-width="1.5"/><text x="337" y="265" font-size="11" text-anchor="middle">Dropdown</text>
  <rect x="437" y="244" width="270" height="32" rx="6" fill="white" stroke="black" stroke-width="1.5"/><text x="572" y="265" font-size="11" text-anchor="middle">Search</text>
  <rect x="722" y="244" width="160" height="32" rx="6" fill="white" stroke="black" stroke-width="1.5"/><text x="802" y="265" font-size="11" text-anchor="middle">Dropdown</text>
  <rect x="895" y="244" width="70" height="32" rx="6" fill="white" stroke="black" stroke-width="1.5"/><text x="930" y="265" font-size="10" text-anchor="middle">Clear</text>
  <!-- table -->
  <rect x="235" y="304" width="745" height="356" rx="8" fill="#f5f5f5" stroke="black" stroke-width="2"/>
  <line x1="235" y1="344" x2="980" y2="344" stroke="black" stroke-width="1.5"/>
  <text x="607" y="329" font-size="12" font-weight="bold" text-anchor="middle">Table (header row)</text>
  <text x="607" y="500" font-size="14" text-anchor="middle">Table rows</text>
</svg>
